<?xml version="1.0" encoding="utf-8" ?>	<!-- Generator: Assembly 2.4 - http://assemblyapp.co -->	<svg version="1.1" xmlns="http://www.w3.org/2000/svg" xmlns:xlink="http://www.w3.org/1999/xlink" width="370.00" height="200.00" viewBox="0 0 300.0 400.0">		<g id="document" transform="scale(3 3) translate(40.0 65.0)">			<g>				<path d="M-4.97148,0 C-4.97148,27.4426 -27.2438,49.7148 -54.6863,49.7148 C-82.1289,49.7148 -104.401,27.4426 -104.401,0 C-104.401,-27.4426 -82.1289,-49.7148 -54.6863,-49.7148 C-27.2438,-49.7148 -4.97148,-27.4426 -4.97148,0 Z M-54.6863,-29.8289 C-71.1916,-29.8289 -84.5152,-16.5053 -84.5152,0 C-84.5152,16.5053 -71.1916,29.8289 -54.6863,29.8289 C-38.181,29.8289 -24.8574,16.5053 -24.8574,0 C-24.8574,-16.5053 -38.181,-29.8289 -54.6863,-29.8289 Z " fill="#d43f68" fill-opacity="1.00" />				<path d="M-4.97148,0 L-4.97148,49.7148 L-24.8574,49.7148 L-24.8574,0 C-24.8574,-27.4426 -2.58515,-49.7148 24.8574,-49.7148 L24.8574,-29.8289 C8.35212,-29.8289 -4.97148,-16.5053 -4.97148,0 Z " fill="#d43f68" fill-opacity="1.00" />				<defs>					<filter id="aMQeS03U" x="-46.08%" y="-46.08%" width="238.25%" height="238.25%" filterUnits="objectBoundingBox">						<feOffset dx="0.00" dy="0.00" in="SourceAlpha" result="shadowOffsetOuter1" />						<feGaussianBlur stdDeviation="4.58" in="shadowOffsetOuter1" result="shadowBlurOuter1" />						<feFlood flood-color="#d43f68" flood-opacity="1.00" />						<feComposite in2="shadowBlurOuter1" operator="in" />						<feMerge>							<feMergeNode />							<feMergeNode in="SourceGraphic" />						</feMerge>					</filter>				</defs>				<path d="M43.66,-49.7148 C49.1514,-49.7148 53.603,-45.2632 53.603,-39.7719 C53.603,-34.2805 49.1514,-29.8289 43.66,-29.8289 C38.1687,-29.8289 33.7171,-34.2805 33.7171,-39.7719 C33.7171,-45.2632 38.1687,-49.7148 43.66,-49.7148 Z " fill="#d43f68" fill-opacity="1.00" filter="url(#aMQeS03U)" />				<defs>					<filter id="R60swLeh" x="-46.08%" y="-46.08%" width="238.25%" height="238.25%" filterUnits="objectBoundingBox">						<feOffset dx="0.00" dy="0.00" in="SourceAlpha" result="shadowOffsetOuter1" />						<feGaussianBlur stdDeviation="4.58" in="shadowOffsetOuter1" result="shadowBlurOuter1" />						<feFlood flood-color="#d43f68" flood-opacity="1.00" />						<feComposite in2="shadowBlurOuter1" operator="in" />						<feMerge>							<feMergeNode />							<feMergeNode in="SourceGraphic" />						</feMerge>					</filter>				</defs>				<path d="M63.546,29.8289 C69.0373,29.8289 73.4889,34.2805 73.4889,39.7719 C73.4889,45.2632 69.0373,49.7148 63.546,49.7148 C58.0546,49.7148 53.603,45.2632 53.603,39.7719 C53.603,34.2805 58.0546,29.8289 63.546,29.8289 Z " fill="#d43f68" fill-opacity="1.00" filter="url(#R60swLeh)" />				<path d="M-14.9144,-49.7148 C-9.4231,-49.7148 -4.97148,-45.2632 -4.97148,-39.7719 C-4.97148,-34.2805 -9.4231,-29.8289 -14.9144,-29.8289 C-20.4058,-29.8289 -24.8574,-34.2805 -24.8574,-39.7719 C-24.8574,-45.2632 -20.4058,-49.7148 -14.9144,-49.7148 Z " fill="#d43f68" fill-opacity="1.00" />				<defs>					<filter id="w3o0teu1" x="-46.08%" y="-46.08%" width="238.25%" height="238.25%" filterUnits="objectBoundingBox">						<feOffset dx="0.00" dy="0.00" in="SourceAlpha" result="shadowOffsetOuter1" />						<feGaussianBlur stdDeviation="4.58" in="shadowOffsetOuter1" result="shadowBlurOuter1" />						<feFlood flood-color="#d43f68" flood-opacity="1.00" />						<feComposite in2="shadowBlurOuter1" operator="in" />						<feMerge>							<feMergeNode />							<feMergeNode in="SourceGraphic" />						</feMerge>					</filter>				</defs>				<path d="M94.4582,-9.94297 C99.9495,-9.94297 104.401,-5.49135 104.401,2.66454e-14 C104.401,5.49135 99.9495,9.94297 94.4582,9.94297 C88.9668,9.94297 84.5152,5.49135 84.5152,2.4869e-14 C84.5152,-5.49135 88.9668,-9.94297 94.4582,-9.94297 Z " fill="#d43f68" fill-opacity="1.00" filter="url(#w3o0teu1)" />			</g>		</g>	</svg>